<svg width="372" height="81" viewBox="0 0 372 81" fill="none" xmlns="http://www.w3.org/2000/svg">
<path d="M105.49 15.4053H131.977C136.296 15.4053 139.774 16.5649 142.405 18.8787C145.042 21.1925 146.357 24.2442 146.357 28.0228V32.9833C146.357 35.4413 145.655 37.5776 144.256 39.3975C142.857 41.2175 140.828 42.5991 138.169 43.5423V43.6866C139.685 44.6798 140.839 45.8117 141.619 47.0879C142.405 48.3641 143.174 50.1341 143.932 52.4035L147.918 65.021H137.734L133.961 53.258C133.342 51.2272 132.489 49.7124 131.397 48.7247C130.305 47.7315 128.95 47.2377 127.339 47.2377H115.306V65.0266H105.479V15.4053H105.49ZM130.121 38.7983C132.116 38.7983 133.682 38.2656 134.819 37.2058C135.956 36.146 136.53 34.7589 136.53 33.061V28.4556C136.53 27.0851 136.101 25.9865 135.248 25.1597C134.396 24.333 133.253 23.9224 131.832 23.9224H115.317V38.8038H130.126L130.121 38.7983Z" fill="white"/>
<path d="M156.501 63.922C154.199 62.8122 152.41 61.2531 151.128 59.2445C149.846 57.2359 149.205 54.9332 149.205 52.3364V43.1923C149.205 40.4069 149.846 37.9489 151.128 35.8237C152.41 33.6986 154.199 32.0451 156.501 30.8633C158.803 29.6814 161.45 29.0933 164.438 29.0933H170.134C174.688 29.0933 178.344 30.3694 181.098 32.9218C183.851 35.4742 185.228 38.8755 185.228 43.1257V50.6386H158.887V52.342C158.887 53.9011 159.383 55.1551 160.38 56.0984C161.378 57.0417 162.727 57.5133 164.438 57.5133H169.989C171.65 57.5133 172.988 57.1471 174.014 56.4147C175.034 55.6823 175.546 54.7279 175.546 53.546H185.089C185.089 55.9097 184.448 58.0127 183.166 59.8548C181.884 61.697 180.095 63.1174 177.793 64.1051C175.491 65.0983 172.843 65.5921 169.856 65.5921H164.444C161.456 65.5921 158.808 65.0372 156.507 63.9275L156.501 63.922ZM175.686 43.6861V43.1202C175.686 41.278 175.19 39.8021 174.192 38.6924C173.194 37.5827 171.868 37.0278 170.207 37.0278H164.438C162.727 37.0278 161.35 37.6215 160.308 38.7978C159.266 39.9797 158.742 41.5388 158.742 43.4753V43.6861H175.686Z" fill="white"/>
<path d="M193.477 37.8714H187.352V29.6484H193.477V27.3124C193.477 23.4838 194.698 20.4987 197.145 18.3458C199.586 16.1985 202.992 15.1221 207.361 15.1221H212.489V23.3451H207.506C205.985 23.3451 204.881 23.678 204.195 24.3383C203.504 24.9986 203.164 26.0418 203.164 27.4567V29.6539H211.709V37.877H203.164V65.0208H193.483V37.877L193.477 37.8714Z" fill="white"/>
<path d="M218.782 24.7266C217.667 23.6612 217.11 22.2574 217.11 20.5096C217.11 18.7618 217.667 17.358 218.782 16.2926C219.897 15.2273 221.379 14.7002 223.23 14.7002C225.08 14.7002 226.563 15.2329 227.678 16.2926C228.792 17.358 229.35 18.7618 229.35 20.5096C229.35 22.2574 228.792 23.6612 227.678 24.7266C226.563 25.7919 225.08 26.319 223.23 26.319C221.379 26.319 219.897 25.7863 218.782 24.7266ZM218.392 29.6537H228.073V65.0206H218.392V29.6537Z" fill="white"/>
<path d="M234.177 29.6539H243.145V33.9041C244.187 32.4393 245.541 31.2685 247.202 30.3974C248.863 29.5262 250.524 29.0879 252.185 29.0879H256.455C260.251 29.0879 263.299 30.2697 265.601 32.6335C267.903 34.9972 269.057 38.1155 269.057 41.9884V65.0207H259.375V42.3435C259.375 40.8787 258.985 39.6969 258.199 38.798C257.413 37.8991 256.405 37.4497 255.173 37.4497H250.903C249.242 37.4497 247.76 38.0489 246.456 39.2585C245.151 40.4626 244.282 42.0328 243.858 43.9693V65.0207H234.177V29.6539Z" fill="white"/>
<path d="M280.221 63.922C277.919 62.8122 276.13 61.2531 274.848 59.2445C273.566 57.2359 272.925 54.9332 272.925 52.3364V43.1923C272.925 40.4069 273.566 37.9489 274.848 35.8237C276.13 33.6986 277.919 32.0451 280.221 30.8633C282.523 29.6814 285.171 29.0933 288.158 29.0933H293.855C298.408 29.0933 302.065 30.3694 304.818 32.9218C307.572 35.4742 308.948 38.8755 308.948 43.1257V50.6386H282.607V52.342C282.607 53.9011 283.103 55.1551 284.101 56.0984C285.098 57.0417 286.447 57.5133 288.158 57.5133H293.71C295.371 57.5133 296.708 57.1471 297.734 56.4147C298.754 55.6823 299.267 54.7279 299.267 53.546H308.809C308.809 55.9097 308.168 58.0127 306.886 59.8548C305.604 61.697 303.815 63.1174 301.513 64.1051C299.211 65.0983 296.563 65.5921 293.576 65.5921H288.164C285.176 65.5921 282.529 65.0372 280.227 63.9275L280.221 63.922ZM299.412 43.6861V43.1202C299.412 41.278 298.916 39.8021 297.918 38.6924C296.92 37.5827 295.594 37.0278 293.933 37.0278H288.164C286.453 37.0278 285.076 37.6215 284.034 38.7978C282.991 39.9797 282.467 41.5388 282.467 43.4753V43.6861H299.412Z" fill="white"/>
<path d="M312.733 29.654H321.701V34.1873C322.604 32.8167 323.897 31.6959 325.58 30.8192C327.263 29.9481 329.03 29.5098 330.886 29.5098H335.73V37.8715H330.886C328.373 37.8715 326.333 38.6262 324.766 40.1409C323.2 41.6557 322.414 43.5922 322.414 45.9503V65.0154H312.733V29.6485V29.654Z" fill="white"/>
<path d="M340.496 62.8235C338.216 60.9814 337.079 58.5455 337.079 55.5215V52.897C337.079 49.923 338.266 47.5204 340.641 45.706C343.015 43.8861 346.147 42.9761 350.038 42.9761H354.38C355.612 42.9761 356.944 43.1425 358.365 43.4699C359.786 43.8028 361.096 44.2523 362.283 44.8182V41.1339C362.283 39.9521 361.893 38.9977 361.107 38.2653C360.321 37.5329 359.29 37.1667 358.008 37.1667H351.888C350.562 37.1667 349.492 37.4719 348.684 38.0878C347.875 38.7036 347.474 39.5304 347.474 40.568H338.077C338.077 37.1167 339.348 34.3424 341.884 32.2395C344.42 30.1366 347.758 29.0879 351.888 29.0879H358.008C362.183 29.0879 365.555 30.1865 368.119 32.3838C370.683 34.581 371.965 37.4996 371.965 41.1339V65.0152H362.997V60.765C361.86 62.2298 360.455 63.4006 358.794 64.2717C357.133 65.1428 355.495 65.5812 353.884 65.5812H349.469C345.768 65.5812 342.775 64.6601 340.501 62.818L340.496 62.8235ZM354.592 58.2126C356.347 58.2126 357.914 57.7632 359.29 56.8643C360.667 55.9654 361.665 54.7614 362.278 53.2521V52.0481C361.52 51.4821 360.461 51.0327 359.112 50.6998C357.758 50.3724 356.325 50.2059 354.803 50.2059H350.317C349.18 50.2059 348.254 50.4889 347.541 51.0549C346.827 51.6208 346.471 52.3754 346.471 53.3243V55.1664C346.471 56.0653 346.861 56.7977 347.647 57.3637C348.427 57.9296 349.464 58.2126 350.746 58.2126H354.592Z" fill="white"/>
<path d="M60.2203 0.145996H20.212C9.06861 0.145996 0.0350952 9.13881 0.0350952 20.232V60.06C0.0350952 71.1532 9.06861 80.146 20.212 80.146H60.2203C71.3637 80.146 80.3972 71.1532 80.3972 60.06V20.232C80.3972 9.13881 71.3637 0.145996 60.2203 0.145996Z" fill="#C49261"/>
<path d="M33.9902 64.5377L23.0769 63.1117C21.9008 62.9564 21.0146 61.9576 21.0146 60.7758V34.9025C21.0146 33.7207 21.8952 32.7219 23.0769 32.5666L36.6656 30.791V62.2017C36.6656 63.6277 35.406 64.7264 33.9902 64.5377Z" fill="#022426"/>
<path d="M57.5114 17.8792L58.4533 28.2163C58.5815 29.5979 57.4891 30.7853 56.0956 30.7853H36.6712L37.8472 17.8792C37.9587 16.6641 38.9787 15.7319 40.2049 15.7319H55.1593C56.3855 15.7319 57.4055 16.6641 57.5169 17.8792H57.5114Z" fill="#022426"/>
</svg>
