<svg width="314" height="84" viewBox="0 0 314 84" fill="none" xmlns="http://www.w3.org/2000/svg">
<path d="M313.665 66.9999H291.289V0H313.665V66.9999Z" fill="black"/>
<path d="M289.263 66.9999H266.887V0H289.263V66.9999Z" fill="black"/>
<path d="M232.928 67.0596C224.011 67.0596 217.098 62.6383 217.098 54.2763C217.098 46.3949 223.109 42.2619 233.729 40.8202L251.163 38.3212V35.7261C251.163 28.6136 247.756 26.4991 239.941 26.4991C232.026 26.4991 228.92 28.902 228.92 35.2455V36.6873H218.5V35.7261C218.5 25.0574 227.217 17.3682 240.542 17.3682C254.469 17.3682 261.482 25.4418 261.482 37.0717V67.0837H251.463V58.6015H250.962C248.057 63.1189 242.346 67.0596 232.928 67.0596ZM227.618 53.5074C227.618 57.2558 230.122 58.7937 236.435 58.7937C243.448 58.7937 251.163 56.1025 251.163 46.491V45.6259L235.332 47.9327C229.622 48.7016 227.618 49.9511 227.618 53.5074Z" fill="black"/>
<path d="M169.009 66.9997H154.909L142.609 17.2998H154.309L160.009 44.8998L162.009 57.9998H162.809L166.109 44.8998L174.809 17.2998H188.809L197.609 44.9998L200.709 57.9998H201.509L203.509 44.9998L209.309 17.2998H220.509L208.209 66.9997H194.209L185.309 39.2998L182.009 26.7998H181.209L178.009 39.2998L169.009 66.9997Z" fill="black"/>
<path d="M106.598 83.9997C103.898 83.9997 100.798 83.5997 99.0976 83.0997V74.2997H105.898C110.198 74.2997 111.698 73.5997 113.298 69.8997L115.198 65.6997L94.0977 17.2998H105.998L115.998 41.3998L120.498 52.1998H121.298L125.398 41.3998L134.498 17.2998H146.398L122.898 72.8997C119.198 81.6997 114.398 83.9997 106.598 83.9997Z" fill="black"/>
<path d="M66.9688 67.0596C58.0518 67.0596 51.1387 62.6383 51.1387 54.2763C51.1387 46.3949 57.1501 42.2619 67.7704 40.8202L85.2036 38.3212V35.7261C85.2036 28.6136 81.7971 26.4991 73.9822 26.4991C66.0671 26.4991 62.9612 28.902 62.9612 35.2455V36.6873H52.5413V35.7261C52.5413 25.0574 61.258 17.3682 74.5833 17.3682C88.5099 17.3682 95.5232 25.4418 95.5232 37.0717V66.0984H85.5041V58.6015H85.0032C82.0977 63.1189 76.3868 67.0596 66.9688 67.0596ZM61.6587 53.5074C61.6587 57.2558 64.1635 58.7937 70.4755 58.7937C77.4889 58.7937 85.2036 56.1025 85.2036 46.491V45.6259L69.3734 47.9327C63.6625 48.7016 61.6587 49.9511 61.6587 53.5074Z" fill="black"/>
<path d="M10.8 66.9999H0V0H28.5C42.4999 0 52.7999 8.29999 52.7999 22.7C52.7999 37.1 42.4999 45.3999 28.5 45.3999H10.8V66.9999ZM29.8 9.69999H10.8V35.7H29.8C38.5999 35.7 42.0999 32.3 42.0999 22.7C42.0999 13.1 38.5999 9.69999 29.8 9.69999Z" fill="black"/>
</svg>
