<svg width="41" height="40" viewBox="0 0 41 40" fill="none" xmlns="http://www.w3.org/2000/svg">
<path d="M30.0926 0H10.0885C4.51676 0 0 4.49641 0 10.043V29.957C0 35.5036 4.51676 40 10.0885 40H30.0926C35.6643 40 40.1811 35.5036 40.1811 29.957V10.043C40.1811 4.49641 35.6643 0 30.0926 0Z" fill="#C49261"/>
<path d="M16.9776 32.1956L11.5209 31.4826C10.9329 31.4049 10.4897 30.9056 10.4897 30.3146V17.378C10.4897 16.7871 10.9301 16.2877 11.5209 16.21L18.3153 15.3223V31.0276C18.3153 31.7406 17.6854 32.2899 16.9776 32.1956Z" fill="#022426"/>
<path d="M28.7382 8.86663L29.2092 14.0352C29.2733 14.726 28.7271 15.3197 28.0304 15.3197H18.3181L18.9061 8.86663C18.9619 8.25905 19.4719 7.79297 20.085 7.79297H27.5622C28.1753 7.79297 28.6853 8.25905 28.741 8.86663H28.7382Z" fill="#022426"/>
</svg>
