<svg width="24" height="25" viewBox="0 0 24 25" fill="none" xmlns="http://www.w3.org/2000/svg">
<path d="M12 2.5C6.48 2.5 2 6.98 2 12.5C2 18.02 6.48 22.5 12 22.5C17.52 22.5 22 18.02 22 12.5C22 6.98 17.52 2.5 12 2.5ZM17.85 14.6C17.81 14.69 17.76 14.77 17.69 14.84L14.65 17.88C14.5 18.03 14.31 18.1 14.12 18.1C13.93 18.1 13.74 18.03 13.59 17.88C13.3 17.59 13.3 17.11 13.59 16.82L15.35 15.06H6.85C6.44 15.06 6.1 14.72 6.1 14.31C6.1 13.9 6.44 13.56 6.85 13.56H17.16C17.26 13.56 17.35 13.58 17.45 13.62C17.63 13.7 17.78 13.84 17.86 14.03C17.92 14.21 17.92 14.42 17.85 14.6ZM17.15 11.43H6.85C6.75 11.43 6.65 11.41 6.56 11.37C6.38 11.29 6.23 11.15 6.15 10.96C6.07 10.78 6.07 10.57 6.15 10.39C6.19 10.3 6.24 10.22 6.31 10.15L9.35 7.11C9.64 6.82 10.12 6.82 10.41 7.11C10.7 7.4 10.7 7.88 10.41 8.17L8.66 9.93H17.16C17.57 9.93 17.91 10.27 17.91 10.68C17.91 11.09 17.57 11.43 17.15 11.43Z" fill="#292D32"/>
</svg>
