<svg width="24" height="25" viewBox="0 0 24 25" fill="none" xmlns="http://www.w3.org/2000/svg">
<path d="M21 22.5H3C2.59 22.5 2.25 22.16 2.25 21.75C2.25 21.34 2.59 21 3 21H21C21.41 21 21.75 21.34 21.75 21.75C21.75 22.16 21.41 22.5 21 22.5Z" fill="#292D32"/>
<path d="M19.0201 3.98004C17.0801 2.04004 15.1801 1.99004 13.1901 3.98004L11.9801 5.19004C11.8801 5.29004 11.8401 5.45004 11.8801 5.59004C12.6401 8.24004 14.7601 10.36 17.4101 11.12C17.4501 11.13 17.4901 11.14 17.5301 11.14C17.6401 11.14 17.7401 11.1 17.8201 11.02L19.0201 9.81004C20.0101 8.83004 20.4901 7.88004 20.4901 6.92004C20.5001 5.93004 20.0201 4.97004 19.0201 3.98004Z" fill="#292D32"/>
<path d="M15.6101 12.03C15.3201 11.89 15.0401 11.75 14.7701 11.59C14.5501 11.46 14.3401 11.32 14.1301 11.17C13.9601 11.06 13.7601 10.9 13.5701 10.74C13.5501 10.73 13.4801 10.67 13.4001 10.59C13.0701 10.31 12.7001 9.95005 12.3701 9.55005C12.3401 9.53005 12.2901 9.46005 12.2201 9.37005C12.1201 9.25005 11.9501 9.05005 11.8001 8.82005C11.6801 8.67005 11.5401 8.45005 11.4101 8.23005C11.2501 7.96005 11.1101 7.69005 10.9701 7.41005C10.9489 7.36465 10.9284 7.31949 10.9085 7.27458C10.7609 6.94127 10.3263 6.84382 10.0685 7.10158L4.34007 12.83C4.21007 12.96 4.09007 13.21 4.06007 13.38L3.52007 17.21C3.42007 17.89 3.61007 18.53 4.03007 18.96C4.39007 19.31 4.89007 19.5 5.43007 19.5C5.55007 19.5 5.67007 19.49 5.79007 19.47L9.63007 18.93C9.81007 18.9 10.0601 18.78 10.1801 18.65L15.9014 12.9287C16.1609 12.6692 16.063 12.2237 15.7254 12.0797C15.6874 12.0634 15.649 12.0469 15.6101 12.03Z" fill="#292D32"/>
</svg>
