<svg width="24" height="25" viewBox="0 0 24 25" fill="none" xmlns="http://www.w3.org/2000/svg">
<path fill-rule="evenodd" clip-rule="evenodd" d="M2 12.5C2 6.99 6.49 2.5 12 2.5C17.51 2.5 22 6.99 22 12.5C22 18.01 17.51 22.5 12 22.5C6.49 22.5 2 18.01 2 12.5ZM7.92 11.4008H15.92C16.34 11.4008 16.67 11.0608 16.67 10.6508C16.67 10.2408 16.33 9.90075 15.92 9.90075H7.92C7.51 9.90075 7.17 10.2408 7.17 10.6508C7.17 11.0608 7.51 11.4008 7.92 11.4008ZM15.92 15.4008H7.92001C7.51001 15.4008 7.17001 15.0608 7.17001 14.6508C7.17001 14.2408 7.51001 13.9008 7.92001 13.9008H15.92C16.33 13.9008 16.67 14.2408 16.67 14.6508C16.67 15.0608 16.34 15.4008 15.92 15.4008Z" fill="#292D32"/>
</svg>
