<svg width="24" height="25" viewBox="0 0 24 25" fill="none" xmlns="http://www.w3.org/2000/svg">
<path d="M14.8299 20.51C14.4099 21.67 13.2999 22.5 11.9999 22.5C11.2099 22.5 10.4299 22.18 9.87993 21.61C9.55993 21.31 9.31993 20.91 9.17993 20.5C9.30993 20.52 9.43993 20.53 9.57993 20.55C9.80993 20.58 10.0499 20.61 10.2899 20.63C10.8599 20.68 11.4399 20.71 12.0199 20.71C12.5899 20.71 13.1599 20.68 13.7199 20.63C13.9299 20.61 14.1399 20.6 14.3399 20.57C14.4999 20.55 14.6599 20.53 14.8299 20.51Z" fill="#292D32"/>
<path d="M19 8.5C20.6569 8.5 22 7.15685 22 5.5C22 3.84315 20.6569 2.5 19 2.5C17.3431 2.5 16 3.84315 16 5.5C16 7.15685 17.3431 8.5 19 8.5Z" fill="#292D32"/>
<path d="M14.876 4.68765C14.9306 4.40903 14.8237 4.11232 14.5675 3.99C14.0475 3.07 13.0875 2.5 11.9875 2.5C10.8975 2.5 9.9175 3.09 9.3975 4.02C7.4475 4.99 6.0975 7 6.0975 9.32V11.85C6.0975 12.26 5.9075 12.96 5.6975 13.32L4.6875 14.99C4.2875 15.66 4.1975 16.4 4.4475 17.08C4.6875 17.75 5.2575 18.27 5.9975 18.52C7.9375 19.18 9.9775 19.5 12.0175 19.5C14.0575 19.5 16.0975 19.18 18.0375 18.53C18.7375 18.3 19.2775 17.77 19.5375 17.08C19.7975 16.39 19.7275 15.63 19.3375 14.99L18.3375 13.33C18.1275 12.96 17.9375 12.26 17.9375 11.85V10.3383C17.9375 9.88295 17.6234 9.49623 17.2113 9.30235C15.7849 8.63112 14.7975 7.18086 14.7975 5.49999C14.7975 5.22208 14.8245 4.95047 14.876 4.68765Z" fill="#292D32"/>
</svg>
