<svg width="24" height="25" viewBox="0 0 24 25" fill="none" xmlns="http://www.w3.org/2000/svg">
<path d="M21.0699 5.73C19.4599 5.57 17.8499 5.45 16.2299 5.36V5.35L16.0099 4.05C15.8599 3.13 15.6399 1.75 13.2999 1.75H10.6799C8.34991 1.75 8.12991 3.07 7.96991 4.04L7.75991 5.32C6.82991 5.38 5.89991 5.44 4.96991 5.53L2.92991 5.73C2.50991 5.77 2.20991 6.14 2.24991 6.55C2.28991 6.96 2.64991 7.26 3.06991 7.22L5.10991 7.02C10.3499 6.5 15.6299 6.7 20.9299 7.23C20.9599 7.23 20.9799 7.23 21.0099 7.23C21.3899 7.23 21.7199 6.94 21.7599 6.55C21.7899 6.14 21.4899 5.77 21.0699 5.73Z" fill="#292D32"/>
<path d="M19.23 8.64C18.99 8.39 18.66 8.25 18.32 8.25H5.67999C5.33999 8.25 4.99999 8.39 4.76999 8.64C4.53999 8.89 4.40999 9.23 4.42999 9.58L5.04999 19.84C5.15999 21.36 5.29999 23.26 8.78999 23.26H15.21C18.7 23.26 18.84 21.37 18.95 19.84L19.57 9.59C19.59 9.23 19.46 8.89 19.23 8.64ZM13.66 18.25H10.33C9.91999 18.25 9.57999 17.91 9.57999 17.5C9.57999 17.09 9.91999 16.75 10.33 16.75H13.66C14.07 16.75 14.41 17.09 14.41 17.5C14.41 17.91 14.07 18.25 13.66 18.25ZM14.5 14.25H9.49999C9.08999 14.25 8.74999 13.91 8.74999 13.5C8.74999 13.09 9.08999 12.75 9.49999 12.75H14.5C14.91 12.75 15.25 13.09 15.25 13.5C15.25 13.91 14.91 14.25 14.5 14.25Z" fill="#292D32"/>
</svg>
